Sora-Black.ufo
<glyph name="dollar" format="2">
  <advance width="650"/>
  <unicode hex="0024"/>
  <outline>
    <contour>
      <point x="329" y="-6" type="curve" smooth="yes"/>
      <point x="519" y="-6"/>
      <point x="624" y="70"/>
      <point x="624" y="212" type="curve" smooth="yes"/>
      <point x="624" y="350"/>
      <point x="516" y="423"/>
      <point x="351" y="437" type="curve" smooth="yes"/>
      <point x="305" y="441" type="line" smooth="yes"/>
      <point x="240" y="447"/>
      <point x="215" y="482"/>
      <point x="215" y="518" type="curve" smooth="yes"/>
      <point x="215" y="562"/>
      <point x="250" y="588"/>
      <point x="312" y="588" type="curve" smooth="yes"/>
      <point x="379" y="588"/>
      <point x="419" y="551"/>
      <point x="419" y="500" type="curve"/>
      <point x="585" y="500" type="line"/>
      <point x="585" y="645"/>
      <point x="491" y="730"/>
      <point x="312" y="730" type="curve" smooth="yes"/>
      <point x="146" y="730"/>
      <point x="49" y="660"/>
      <point x="49" y="518" type="curve" smooth="yes"/>
      <point x="49" y="381"/>
      <point x="142" y="305"/>
      <point x="289" y="292" type="curve" smooth="yes"/>
      <point x="335" y="288" type="line" smooth="yes"/>
      <point x="423" y="280"/>
      <point x="458" y="253"/>
      <point x="458" y="212" type="curve" smooth="yes"/>
      <point x="458" y="163"/>
      <point x="409" y="136"/>
      <point x="329" y="136" type="curve" smooth="yes"/>
      <point x="237" y="136"/>
      <point x="192" y="173"/>
      <point x="192" y="228" type="curve"/>
      <point x="26" y="228" type="line"/>
      <point x="26" y="83"/>
      <point x="125" y="-6"/>
    </contour>
    <contour>
      <point x="249" y="-129" type="line"/>
      <point x="395" y="-129" type="line"/>
      <point x="395" y="17" type="line"/>
      <point x="249" y="17" type="line"/>
    </contour>
    <contour>
      <point x="245" y="681" type="line"/>
      <point x="391" y="681" type="line"/>
      <point x="391" y="827" type="line"/>
      <point x="245" y="827" type="line"/>
    </contour>
  </outline>
</glyph>
<glyph name="quotesingle" format="2">
  <advance width="270"/>
  <unicode hex="0027"/>
  <outline>
    <contour>
      <point x="52" y="408" type="line"/>
      <point x="218" y="408" type="line"/>
      <point x="218" y="730" type="line"/>
      <point x="52" y="730" type="line"/>
    </contour>
  </outline>
</glyph>
<glyph name="period" format="2">
  <advance width="276"/>
  <unicode hex="002E"/>
  <outline>
    <contour>
      <point x="40" y="0" type="line"/>
      <point x="236" y="0" type="line"/>
      <point x="236" y="198" type="line"/>
      <point x="40" y="198" type="line"/>
    </contour>
  </outline>
</glyph>
<glyph name="zero" format="2">
  <advance width="769"/>
  <unicode hex="0030"/>
  <outline>
    <contour>
      <point x="385" y="-20" type="curve" smooth="yes"/>
      <point x="621" y="-20"/>
      <point x="717" y="146"/>
      <point x="717" y="336" type="curve" smooth="yes"/>
      <point x="717" y="394" type="line" smooth="yes"/>
      <point x="717" y="593"/>
      <point x="611" y="752"/>
      <point x="385" y="752" type="curve" smooth="yes"/>
      <point x="158" y="752"/>
      <point x="52" y="593"/>
      <point x="52" y="394" type="curve" smooth="yes"/>
      <point x="52" y="336" type="line" smooth="yes"/>
      <point x="52" y="146"/>
      <point x="148" y="-20"/>
    </contour>
    <contour>
      <point x="385" y="152" type="curve" smooth="yes"/>
      <point x="286" y="152"/>
      <point x="238" y="220"/>
      <point x="238" y="366" type="curve" smooth="yes"/>
      <point x="238" y="517"/>
      <point x="288" y="580"/>
      <point x="385" y="580" type="curve" smooth="yes"/>
      <point x="481" y="580"/>
      <point x="531" y="517"/>
      <point x="531" y="364" type="curve" smooth="yes"/>
      <point x="531" y="220"/>
      <point x="483" y="152"/>
    </contour>
  </outline>
</glyph>
<glyph name="three" format="2">
  <advance width="638"/>
  <unicode hex="0033"/>
  <outline>
    <contour>
      <point x="313" y="-20" type="curve" smooth="yes"/>
      <point x="487" y="-20"/>
      <point x="596" y="79"/>
      <point x="596" y="217" type="curve" smooth="yes"/>
      <point x="596" y="229" type="line" smooth="yes"/>
      <point x="596" y="369"/>
      <point x="486" y="454"/>
      <point x="315" y="454" type="curve" smooth="yes"/>
      <point x="282" y="454"/>
      <point x="250" y="450"/>
      <point x="222" y="442" type="curve"/>
      <point x="306" y="411" type="line"/>
      <point x="569" y="571" type="line"/>
      <point x="569" y="730" type="line"/>
      <point x="61" y="730" type="line"/>
      <point x="61" y="570" type="line"/>
      <point x="333" y="570" type="line"/>
      <point x="342" y="554" type="line"/>
      <point x="140" y="430" type="line"/>
      <point x="223" y="292" type="line"/>
      <point x="244" y="310"/>
      <point x="274" y="324"/>
      <point x="313" y="324" type="curve" smooth="yes"/>
      <point x="379" y="324"/>
      <point x="416" y="283"/>
      <point x="416" y="229" type="curve" smooth="yes"/>
      <point x="416" y="174"/>
      <point x="379" y="134"/>
      <point x="313" y="134" type="curve" smooth="yes"/>
      <point x="248" y="134"/>
      <point x="210" y="170"/>
      <point x="210" y="222" type="curve"/>
      <point x="30" y="222" type="line"/>
      <point x="30" y="82"/>
      <point x="140" y="-20"/>
    </contour>
  </outline>
</glyph>
<glyph name="four" format="2">
  <advance width="682"/>
  <unicode hex="0034"/>
  <outline>
    <contour>
      <point x="28" y="129" type="line"/>
      <point x="662" y="129" type="line"/>
      <point x="662" y="277" type="line"/>
      <point x="237" y="277" type="line"/>
      <point x="222" y="299" type="line"/>
      <point x="443" y="659" type="line"/>
      <point x="296" y="752" type="line"/>
      <point x="28" y="318" type="line"/>
    </contour>
    <contour>
      <point x="411" y="0" type="line"/>
      <point x="583" y="0" type="line"/>
      <point x="583" y="529" type="line"/>
      <point x="411" y="529" type="line"/>
    </contour>
  </outline>
</glyph>
<glyph name="eight" format="2">
  <advance width="677"/>
  <unicode hex="0038"/>
  <outline>
    <contour>
      <point x="338" y="-22" type="curve" smooth="yes"/>
      <point x="521" y="-22"/>
      <point x="639" y="55"/>
      <point x="639" y="202" type="curve" smooth="yes"/>
      <point x="639" y="295"/>
      <point x="593" y="357"/>
      <point x="519" y="383" type="curve"/>
      <point x="519" y="397" type="line"/>
      <point x="577" y="420"/>
      <point x="617" y="468"/>
      <point x="617" y="550" type="curve" smooth="yes"/>
      <point x="617" y="687"/>
      <point x="500" y="752"/>
      <point x="338" y="752" type="curve" smooth="yes"/>
      <point x="177" y="752"/>
      <point x="59" y="687"/>
      <point x="59" y="550" type="curve" smooth="yes"/>
      <point x="59" y="468"/>
      <point x="100" y="420"/>
      <point x="157" y="397" type="curve"/>
      <point x="157" y="383" type="line"/>
      <point x="84" y="357"/>
      <point x="38" y="295"/>
      <point x="38" y="202" type="curve" smooth="yes"/>
      <point x="38" y="55"/>
      <point x="156" y="-22"/>
    </contour>
    <contour>
      <point x="338" y="130" type="curve" smooth="yes"/>
      <point x="267" y="130"/>
      <point x="218" y="161"/>
      <point x="218" y="226" type="curve" smooth="yes"/>
      <point x="218" y="290"/>
      <point x="267" y="321"/>
      <point x="338" y="321" type="curve" smooth="yes"/>
      <point x="410" y="321"/>
      <point x="459" y="290"/>
      <point x="459" y="226" type="curve" smooth="yes"/>
      <point x="459" y="161"/>
      <point x="409" y="130"/>
    </contour>
    <contour>
      <point x="338" y="457" type="curve" smooth="yes"/>
      <point x="276" y="457"/>
      <point x="239" y="483"/>
      <point x="239" y="529" type="curve" smooth="yes"/>
      <point x="239" y="574"/>
      <point x="275" y="600"/>
      <point x="338" y="600" type="curve" smooth="yes"/>
      <point x="400" y="600"/>
      <point x="437" y="575"/>
      <point x="437" y="529" type="curve" smooth="yes"/>
      <point x="437" y="483"/>
      <point x="401" y="457"/>
    </contour>
  </outline>
</glyph>
<glyph name="D" format="2">
  <advance width="778"/>
  <unicode hex="0044"/>
  <anchor x="389" y="0" name="bottom"/>
  <anchor x="208" y="365" name="center"/>
  <anchor x="381" y="730" name="top"/>
  <outline>
    <contour>
      <point x="240" y="-4" type="line"/>
      <point x="352" y="-4" type="line" smooth="yes"/>
      <point x="615" y="-4"/>
      <point x="750" y="176"/>
      <point x="750" y="356" type="curve" smooth="yes"/>
      <point x="750" y="378" type="line" smooth="yes"/>
      <point x="750" y="573"/>
      <point x="615" y="736"/>
      <point x="352" y="736" type="curve" smooth="yes"/>
      <point x="240" y="736" type="line"/>
      <point x="240" y="562" type="line"/>
      <point x="360" y="562" type="line" smooth="yes"/>
      <point x="486" y="562"/>
      <point x="562" y="495"/>
      <point x="562" y="367" type="curve" smooth="yes"/>
      <point x="562" y="245"/>
      <point x="486" y="170"/>
      <point x="360" y="170" type="curve" smooth="yes"/>
      <point x="240" y="170" type="line"/>
    </contour>
    <contour>
      <point x="74" y="-4" type="line"/>
      <point x="260" y="-4" type="line"/>
      <point x="260" y="736" type="line"/>
      <point x="74" y="736" type="line"/>
    </contour>
  </outline>
</glyph>
<glyph name="G" format="2">
  <advance width="833"/>
  <unicode hex="0047"/>
  <anchor x="429" y="0" name="bottom"/>
  <anchor x="409" y="730" name="top"/>
  <outline>
    <contour>
      <point x="427" y="-20" type="curve" smooth="yes"/>
      <point x="575" y="-20"/>
      <point x="692" y="39"/>
      <point x="753" y="144" type="curve"/>
      <point x="753" y="294" type="line"/>
      <point x="583" y="294" type="line"/>
      <point x="583" y="135" type="line"/>
      <point x="597" y="245" type="line"/>
      <point x="573" y="188"/>
      <point x="510" y="150"/>
      <point x="427" y="150" type="curve" smooth="yes"/>
      <point x="295" y="150"/>
      <point x="226" y="242"/>
      <point x="226" y="366" type="curve" smooth="yes"/>
      <point x="226" y="489"/>
      <point x="291" y="578"/>
      <point x="411" y="578" type="curve" smooth="yes"/>
      <point x="505" y="578"/>
      <point x="571" y="527"/>
      <point x="583" y="461" type="curve"/>
      <point x="769" y="461" type="line"/>
      <point x="752" y="632"/>
      <point x="612" y="752"/>
      <point x="411" y="752" type="curve" smooth="yes"/>
      <point x="161" y="752"/>
      <point x="38" y="560"/>
      <point x="38" y="378" type="curve" smooth="yes"/>
      <point x="38" y="356" type="line" smooth="yes"/>
      <point x="38" y="187"/>
      <point x="152" y="-20"/>
    </contour>
    <contour>
      <point x="407" y="258" type="line"/>
      <point x="813" y="258" type="line"/>
      <point x="813" y="388" type="line"/>
      <point x="407" y="388" type="line"/>
    </contour>
  </outline>
</glyph>
<glyph name="H" format="2">
  <advance width="798"/>
  <unicode hex="0048"/>
  <anchor x="399" y="0" name="bottom"/>
  <anchor x="399" y="606" name="center"/>
  <anchor x="399" y="730" name="top"/>
  <outline>
    <contour>
      <point x="538" y="0" type="line"/>
      <point x="724" y="0" type="line"/>
      <point x="724" y="730" type="line"/>
      <point x="538" y="730" type="line"/>
    </contour>
    <contour>
      <point x="74" y="0" type="line"/>
      <point x="260" y="0" type="line"/>
      <point x="260" y="730" type="line"/>
      <point x="74" y="730" type="line"/>
    </contour>
    <contour>
      <point x="228" y="287" type="line"/>
      <point x="570" y="287" type="line"/>
      <point x="570" y="449" type="line"/>
      <point x="228" y="449" type="line"/>
    </contour>
  </outline>
</glyph>
<glyph name="J" format="2">
  <advance width="644"/>
  <unicode hex="004A"/>
  <anchor x="325" y="0" name="bottom"/>
  <anchor x="348" y="730" name="top"/>
  <outline>
    <contour>
      <point x="307" y="-20" type="curve" smooth="yes"/>
      <point x="482" y="-20"/>
      <point x="582" y="79"/>
      <point x="582" y="251" type="curve" smooth="yes"/>
      <point x="582" y="588" type="line"/>
      <point x="396" y="588" type="line"/>
      <point x="396" y="245" type="line" smooth="yes"/>
      <point x="396" y="191"/>
      <point x="363" y="154"/>
      <point x="306" y="154" type="curve" smooth="yes"/>
      <point x="249" y="154"/>
      <point x="216" y="191"/>
      <point x="216" y="245" type="curve" smooth="yes"/>
      <point x="216" y="291" type="line"/>
      <point x="32" y="291" type="line"/>
      <point x="32" y="251" type="line" smooth="yes"/>
      <point x="32" y="79"/>
      <point x="133" y="-20"/>
    </contour>
    <contour>
      <point x="114" y="568" type="line"/>
      <point x="582" y="568" type="line"/>
      <point x="582" y="730" type="line"/>
      <point x="114" y="730" type="line"/>
    </contour>
  </outline>
</glyph>
<glyph name="P" format="2">
  <advance width="676"/>
  <unicode hex="0050"/>
  <outline>
    <contour>
      <point x="240" y="194" type="line"/>
      <point x="355" y="194" type="line" smooth="yes"/>
      <point x="543" y="194"/>
      <point x="660" y="294"/>
      <point x="660" y="457" type="curve" smooth="yes"/>
      <point x="660" y="473" type="line" smooth="yes"/>
      <point x="660" y="637"/>
      <point x="543" y="736"/>
      <point x="355" y="736" type="curve" smooth="yes"/>
      <point x="240" y="736" type="line"/>
      <point x="240" y="576" type="line"/>
      <point x="360" y="576" type="line" smooth="yes"/>
      <point x="428" y="576"/>
      <point x="472" y="535"/>
      <point x="472" y="465" type="curve" smooth="yes"/>
      <point x="472" y="396"/>
      <point x="428" y="354"/>
      <point x="360" y="354" type="curve" smooth="yes"/>
      <point x="240" y="354" type="line"/>
    </contour>
    <contour>
      <point x="74" y="0" type="line"/>
      <point x="260" y="0" type="line"/>
      <point x="260" y="736" type="line"/>
      <point x="74" y="736" type="line"/>
    </contour>
  </outline>
</glyph>
<glyph name="W" format="2">
  <advance width="1080"/>
  <unicode hex="0057"/>
  <guideline x="17" y="148" angle="0"/>
  <anchor x="545" y="0" name="bottom"/>
  <anchor x="541" y="730" name="top"/>
  <outline>
    <contour>
      <point x="192" y="0" type="line"/>
      <point x="469" y="0" type="line"/>
      <point x="606" y="704" type="line"/>
      <point x="455" y="704" type="line"/>
      <point x="356" y="125" type="line"/>
      <point x="391" y="148" type="line"/>
      <point x="310" y="148" type="line"/>
      <point x="341" y="125" type="line"/>
      <point x="210" y="730" type="line"/>
      <point x="18" y="730" type="line"/>
    </contour>
    <contour>
      <point x="626" y="0" type="line"/>
      <point x="909" y="0" type="line"/>
      <point x="1062" y="730" type="line"/>
      <point x="882" y="730" type="line"/>
      <point x="769" y="125" type="line"/>
      <point x="795" y="148" type="line"/>
      <point x="719" y="148" type="line"/>
      <point x="754" y="125" type="line"/>
      <point x="638" y="704" type="line"/>
      <point x="479" y="704" type="line"/>
    </contour>
  </outline>
</glyph>
<glyph name="b" format="2">
  <advance width="708"/>
  <unicode hex="0062"/>
  <outline>
    <contour>
      <point x="422" y="-18" type="curve" smooth="yes"/>
      <point x="579" y="-18"/>
      <point x="674" y="103"/>
      <point x="674" y="265" type="curve" smooth="yes"/>
      <point x="674" y="289" type="line" smooth="yes"/>
      <point x="674" y="451"/>
      <point x="580" y="568"/>
      <point x="431" y="568" type="curve" smooth="yes"/>
      <point x="300" y="568"/>
      <point x="214" y="476"/>
      <point x="208" y="314" type="curve"/>
      <point x="248" y="354" type="line"/>
      <point x="248" y="730" type="line"/>
      <point x="66" y="730" type="line"/>
      <point x="66" y="0" type="line"/>
      <point x="210" y="0" type="line"/>
      <point x="210" y="224" type="line"/>
      <point x="194" y="224" type="line"/>
      <point x="198" y="68"/>
      <point x="286" y="-18"/>
    </contour>
    <contour>
      <point x="370" y="132" type="curve" smooth="yes"/>
      <point x="309" y="132"/>
      <point x="244" y="177"/>
      <point x="244" y="255" type="curve" smooth="yes"/>
      <point x="244" y="289" type="line" smooth="yes"/>
      <point x="244" y="371"/>
      <point x="304" y="418"/>
      <point x="370" y="418" type="curve" smooth="yes"/>
      <point x="443" y="418"/>
      <point x="492" y="362"/>
      <point x="492" y="277" type="curve" smooth="yes"/>
      <point x="492" y="192"/>
      <point x="442" y="132"/>
    </contour>
  </outline>
</glyph>
<glyph name="d" format="2">
  <advance width="708"/>
  <unicode hex="0064"/>
  <anchor x="317" y="0" name="bottom"/>
  <anchor x="510" y="637" name="center"/>
  <anchor x="553" y="730" name="top"/>
  <anchor x="626" y="534" name="topright"/>
  <outline>
    <contour>
      <point x="293" y="-18" type="curve" smooth="yes"/>
      <point x="429" y="-18"/>
      <point x="514" y="75"/>
      <point x="518" y="224" type="curve"/>
      <point x="498" y="224" type="line"/>
      <point x="498" y="0" type="line"/>
      <point x="642" y="0" type="line"/>
      <point x="642" y="730" type="line"/>
      <point x="460" y="730" type="line"/>
      <point x="460" y="348" type="line"/>
      <point x="502" y="317" type="line"/>
      <point x="498" y="477"/>
      <point x="421" y="568"/>
      <point x="287" y="568" type="curve" smooth="yes"/>
      <point x="132" y="568"/>
      <point x="34" y="446"/>
      <point x="34" y="285" type="curve" smooth="yes"/>
      <point x="34" y="261" type="line" smooth="yes"/>
      <point x="34" y="100"/>
      <point x="139" y="-18"/>
    </contour>
    <contour>
      <point x="342" y="132" type="curve" smooth="yes"/>
      <point x="269" y="132"/>
      <point x="216" y="187"/>
      <point x="216" y="273" type="curve" smooth="yes"/>
      <point x="216" y="359"/>
      <point x="269" y="418"/>
      <point x="342" y="418" type="curve" smooth="yes"/>
      <point x="405" y="418"/>
      <point x="464" y="374"/>
      <point x="464" y="295" type="curve" smooth="yes"/>
      <point x="464" y="261" type="line" smooth="yes"/>
      <point x="464" y="178"/>
      <point x="408" y="132"/>
    </contour>
  </outline>
</glyph>
<glyph name="g" format="2">
  <advance width="690"/>
  <unicode hex="0067"/>
  <anchor x="279" y="-300" name="bottom"/>
  <anchor x="325" y="552" name="top"/>
  <outline>
    <contour>
      <point x="287" y="-221" type="curve" smooth="yes"/>
      <point x="515" y="-221"/>
      <point x="630" y="-140"/>
      <point x="630" y="65" type="curve" smooth="yes"/>
      <point x="630" y="552" type="line"/>
      <point x="486" y="552" type="line"/>
      <point x="486" y="310" type="line"/>
      <point x="506" y="317" type="line"/>
      <point x="502" y="477"/>
      <point x="419" y="568"/>
      <point x="288" y="568" type="curve" smooth="yes"/>
      <point x="136" y="568"/>
      <point x="34" y="450"/>
      <point x="34" y="292" type="curve" smooth="yes"/>
      <point x="34" y="268" type="line" smooth="yes"/>
      <point x="34" y="110"/>
      <point x="127" y="-4"/>
      <point x="277" y="-4" type="curve" smooth="yes"/>
      <point x="409" y="-4"/>
      <point x="484" y="84"/>
      <point x="488" y="225" type="curve"/>
      <point x="460" y="165" type="line"/>
      <point x="460" y="53" type="line" smooth="yes"/>
      <point x="460" y="-31"/>
      <point x="404" y="-69"/>
      <point x="281" y="-69" type="curve" smooth="yes"/>
      <point x="233" y="-69"/>
      <point x="170" y="-64"/>
      <point x="124" y="-58" type="curve"/>
      <point x="124" y="-210" type="line"/>
      <point x="170" y="-217"/>
      <point x="232" y="-221"/>
    </contour>
    <contour>
      <point x="338" y="146" type="curve" smooth="yes"/>
      <point x="266" y="146"/>
      <point x="216" y="196"/>
      <point x="216" y="280" type="curve" smooth="yes"/>
      <point x="216" y="364"/>
      <point x="266" y="418"/>
      <point x="338" y="418" type="curve" smooth="yes"/>
      <point x="400" y="418"/>
      <point x="456" y="374"/>
      <point x="456" y="297" type="curve" smooth="yes"/>
      <point x="456" y="273" type="line" smooth="yes"/>
      <point x="456" y="192"/>
      <point x="403" y="146"/>
    </contour>
  </outline>
</glyph>
<glyph name="j" format="2">
  <advance width="346"/>
  <unicode hex="006A"/>
  <outline>
    <contour>
      <point x="6" y="-206" type="line"/>
      <point x="30" y="-206" type="line" smooth="yes"/>
      <point x="206" y="-206"/>
      <point x="284" y="-144"/>
      <point x="284" y="22" type="curve" smooth="yes"/>
      <point x="284" y="552" type="line"/>
      <point x="108" y="552" type="line"/>
      <point x="108" y="20" type="line" smooth="yes"/>
      <point x="108" y="-28"/>
      <point x="82" y="-54"/>
      <point x="34" y="-54" type="curve" smooth="yes"/>
      <point x="6" y="-54" type="line"/>
    </contour>
    <contour>
      <point x="34" y="420" type="line"/>
      <point x="284" y="420" type="line"/>
      <point x="284" y="552" type="line"/>
      <point x="34" y="552" type="line"/>
    </contour>
    <contour>
      <point x="176" y="596" type="curve" smooth="yes"/>
      <point x="242" y="596"/>
      <point x="272" y="634"/>
      <point x="272" y="687" type="curve" smooth="yes"/>
      <point x="272" y="740"/>
      <point x="242" y="778"/>
      <point x="176" y="778" type="curve" smooth="yes"/>
      <point x="110" y="778"/>
      <point x="80" y="740"/>
      <point x="80" y="687" type="curve" smooth="yes"/>
      <point x="80" y="634"/>
      <point x="110" y="596"/>
    </contour>
  </outline>
</glyph>
<glyph name="m" format="2">
  <advance width="988"/>
  <unicode hex="006D"/>
  <outline>
    <contour>
      <point x="66" y="0" type="line"/>
      <point x="248" y="0" type="line"/>
      <point x="248" y="317" type="line" smooth="yes"/>
      <point x="248" y="370"/>
      <point x="278" y="408"/>
      <point x="329" y="408" type="curve" smooth="yes"/>
      <point x="380" y="408"/>
      <point x="408" y="370"/>
      <point x="408" y="319" type="curve" smooth="yes"/>
      <point x="408" y="0" type="line"/>
      <point x="590" y="0" type="line"/>
      <point x="590" y="317" type="line" smooth="yes"/>
      <point x="590" y="370"/>
      <point x="620" y="408"/>
      <point x="671" y="408" type="curve" smooth="yes"/>
      <point x="722" y="408"/>
      <point x="750" y="370"/>
      <point x="750" y="319" type="curve" smooth="yes"/>
      <point x="750" y="0" type="line"/>
      <point x="932" y="0" type="line"/>
      <point x="932" y="314" type="line" smooth="yes"/>
      <point x="932" y="485"/>
      <point x="863" y="570"/>
      <point x="740" y="570" type="curve" smooth="yes"/>
      <point x="732" y="570" type="line" smooth="yes"/>
      <point x="609" y="570"/>
      <point x="544" y="485"/>
      <point x="544" y="314" type="curve"/>
      <point x="586" y="314" type="line"/>
      <point x="586" y="485"/>
      <point x="521" y="570"/>
      <point x="398" y="570" type="curve" smooth="yes"/>
      <point x="390" y="570" type="line" smooth="yes"/>
      <point x="267" y="570"/>
      <point x="202" y="485"/>
      <point x="202" y="314" type="curve"/>
      <point x="210" y="314" type="line"/>
      <point x="210" y="552" type="line"/>
      <point x="66" y="552" type="line"/>
    </contour>
  </outline>
</glyph>
<glyph name="o" format="2">
  <advance width="682"/>
  <unicode hex="006F"/>
  <note>
o
</note>
  <anchor x="341" y="0" name="bottom"/>
  <anchor x="341" y="267" name="center"/>
  <anchor x="458" y="12" name="ogonek"/>
  <anchor x="341" y="552" name="top"/>
  <outline>
    <contour>
      <point x="341" y="-20" type="curve" smooth="yes"/>
      <point x="536" y="-20"/>
      <point x="648" y="108"/>
      <point x="648" y="262" type="curve" smooth="yes"/>
      <point x="648" y="286" type="line" smooth="yes"/>
      <point x="648" y="447"/>
      <point x="529" y="572"/>
      <point x="341" y="572" type="curve" smooth="yes"/>
      <point x="153" y="572"/>
      <point x="34" y="447"/>
      <point x="34" y="286" type="curve" smooth="yes"/>
      <point x="34" y="262" type="line" smooth="yes"/>
      <point x="34" y="108"/>
      <point x="146" y="-20"/>
    </contour>
    <contour>
      <point x="341" y="132" type="curve" smooth="yes"/>
      <point x="258" y="132"/>
      <point x="216" y="191"/>
      <point x="216" y="274" type="curve" smooth="yes"/>
      <point x="216" y="359"/>
      <point x="261" y="420"/>
      <point x="341" y="420" type="curve" smooth="yes"/>
      <point x="421" y="420"/>
      <point x="466" y="359"/>
      <point x="466" y="274" type="curve" smooth="yes"/>
      <point x="466" y="191"/>
      <point x="424" y="132"/>
    </contour>
  </outline>
</glyph>
<glyph name="q" format="2">
  <advance width="708"/>
  <unicode hex="0071"/>
  <outline>
    <contour>
      <point x="460" y="-200" type="line"/>
      <point x="642" y="-200" type="line"/>
      <point x="642" y="552" type="line"/>
      <point x="498" y="552" type="line"/>
      <point x="498" y="317" type="line"/>
      <point x="514" y="317" type="line"/>
      <point x="510" y="477"/>
      <point x="427" y="568"/>
      <point x="293" y="568" type="curve" smooth="yes"/>
      <point x="138" y="568"/>
      <point x="34" y="446"/>
      <point x="34" y="285" type="curve" smooth="yes"/>
      <point x="34" y="261" type="line" smooth="yes"/>
      <point x="34" y="100"/>
      <point x="132" y="-18"/>
      <point x="286" y="-18" type="curve" smooth="yes"/>
      <point x="422" y="-18"/>
      <point x="500" y="74"/>
      <point x="504" y="215" type="curve"/>
      <point x="460" y="163" type="line"/>
    </contour>
    <contour>
      <point x="342" y="132" type="curve" smooth="yes"/>
      <point x="269" y="132"/>
      <point x="216" y="187"/>
      <point x="216" y="273" type="curve" smooth="yes"/>
      <point x="216" y="359"/>
      <point x="269" y="418"/>
      <point x="342" y="418" type="curve" smooth="yes"/>
      <point x="405" y="418"/>
      <point x="464" y="374"/>
      <point x="464" y="295" type="curve" smooth="yes"/>
      <point x="464" y="261" type="line" smooth="yes"/>
      <point x="464" y="178"/>
      <point x="408" y="132"/>
    </contour>
  </outline>
</glyph>
<glyph name="r" format="2">
  <advance width="424"/>
  <unicode hex="0072"/>
  <note>
r / design an alternative version with a round hook. Look at lettera (based on Olivetti Candia)
</note>
  <anchor x="157" y="0" name="bottom"/>
  <anchor x="238" y="552" name="top"/>
  <outline>
    <contour>
      <point x="66" y="0" type="line"/>
      <point x="248" y="0" type="line"/>
      <point x="248" y="276" type="line" smooth="yes"/>
      <point x="248" y="358"/>
      <point x="294" y="404"/>
      <point x="376" y="404" type="curve" smooth="yes"/>
      <point x="418" y="404" type="line"/>
      <point x="418" y="560" type="line"/>
      <point x="396" y="560" type="line" smooth="yes"/>
      <point x="274" y="560"/>
      <point x="208" y="466"/>
      <point x="208" y="312" type="curve"/>
      <point x="210" y="312" type="line"/>
      <point x="210" y="552" type="line"/>
      <point x="66" y="552" type="line"/>
    </contour>
  </outline>
</glyph>
<glyph name="braceleft" format="2">
  <advance width="398"/>
  <unicode hex="007B"/>
  <guideline x="10" y="297" angle="0"/>
  <guideline y="-182"/>
  <outline>
    <contour>
      <point x="340" y="-182" type="curve" smooth="yes"/>
      <point x="366" y="-182" type="line"/>
      <point x="366" y="-30" type="line"/>
      <point x="340" y="-30" type="line" smooth="yes"/>
      <point x="301" y="-30"/>
      <point x="288" y="-13"/>
      <point x="288" y="18" type="curve" smooth="yes"/>
      <point x="288" y="170" type="line" smooth="yes"/>
      <point x="288" y="252"/>
      <point x="253" y="285"/>
      <point x="182" y="291" type="curve"/>
      <point x="182" y="307" type="line"/>
      <point x="253" y="313"/>
      <point x="288" y="346"/>
      <point x="288" y="428" type="curve" smooth="yes"/>
      <point x="288" y="576" type="line" smooth="yes"/>
      <point x="288" y="607"/>
      <point x="301" y="624"/>
      <point x="340" y="624" type="curve" smooth="yes"/>
      <point x="366" y="624" type="line"/>
      <point x="366" y="776" type="line"/>
      <point x="340" y="776" type="line" smooth="yes"/>
      <point x="202" y="776"/>
      <point x="116" y="720"/>
      <point x="116" y="578" type="curve" smooth="yes"/>
      <point x="116" y="439" type="line" smooth="yes"/>
      <point x="116" y="398"/>
      <point x="91" y="379"/>
      <point x="38" y="379" type="curve"/>
      <point x="38" y="219" type="line"/>
      <point x="91" y="219"/>
      <point x="116" y="200"/>
      <point x="116" y="159" type="curve" smooth="yes"/>
      <point x="116" y="16" type="line" smooth="yes"/>
      <point x="116" y="-126"/>
      <point x="202" y="-182"/>
    </contour>
  </outline>
</glyph>
<glyph name="bar" format="2">
  <advance width="376"/>
  <unicode hex="007C"/>
  <outline>
    <contour>
      <point x="112" y="-200" type="line"/>
      <point x="264" y="-199" type="line"/>
      <point x="264" y="731" type="line"/>
      <point x="112" y="730" type="line"/>
    </contour>
  </outline>
</glyph>
<glyph name="currency" format="2">
  <advance width="688"/>
  <unicode hex="00A4"/>
  <outline>
    <contour>
      <point x="344" y="131" type="curve" smooth="yes"/>
      <point x="492" y="131"/>
      <point x="594" y="240"/>
      <point x="594" y="356" type="curve" smooth="yes"/>
      <point x="594" y="372" type="line" smooth="yes"/>
      <point x="594" y="490"/>
      <point x="492" y="597"/>
      <point x="344" y="597" type="curve" smooth="yes"/>
      <point x="196" y="597"/>
      <point x="94" y="490"/>
      <point x="94" y="372" type="curve" smooth="yes"/>
      <point x="94" y="356" type="line" smooth="yes"/>
      <point x="94" y="240"/>
      <point x="196" y="131"/>
    </contour>
    <contour>
      <point x="130" y="56" type="line"/>
      <point x="243" y="169" type="line"/>
      <point x="141" y="273" type="line"/>
      <point x="28" y="160" type="line"/>
    </contour>
    <contour>
      <point x="141" y="453" type="line"/>
      <point x="243" y="557" type="line"/>
      <point x="130" y="670" type="line"/>
      <point x="28" y="566" type="line"/>
    </contour>
    <contour>
      <point x="344" y="267" type="curve" smooth="yes"/>
      <point x="281" y="267"/>
      <point x="248" y="306"/>
      <point x="248" y="364" type="curve" smooth="yes"/>
      <point x="248" y="425"/>
      <point x="283" y="461"/>
      <point x="344" y="461" type="curve" smooth="yes"/>
      <point x="405" y="461"/>
      <point x="440" y="425"/>
      <point x="440" y="364" type="curve" smooth="yes"/>
      <point x="440" y="306"/>
      <point x="407" y="267"/>
    </contour>
    <contour>
      <point x="558" y="56" type="line"/>
      <point x="660" y="160" type="line"/>
      <point x="547" y="273" type="line"/>
      <point x="445" y="169" type="line"/>
    </contour>
    <contour>
      <point x="547" y="453" type="line"/>
      <point x="660" y="566" type="line"/>
      <point x="558" y="670" type="line"/>
      <point x="445" y="557" type="line"/>
    </contour>
  </outline>
</glyph>
<glyph name="multiply" format="2">
  <advance width="598"/>
  <unicode hex="00D7"/>
  <outline>
    <contour>
      <point x="455" y="84" type="line"/>
      <point x="38" y="500" type="line"/>
      <point x="143" y="605" type="line"/>
      <point x="560" y="189" type="line"/>
    </contour>
    <contour>
      <point x="139" y="84" type="line"/>
      <point x="38" y="185" type="line"/>
      <point x="459" y="605" type="line"/>
      <point x="560" y="504" type="line"/>
    </contour>
  </outline>
</glyph>
<glyph name="Thorn" format="2">
  <advance width="662"/>
  <unicode hex="00DE"/>
  <outline>
    <contour>
      <point x="240" y="104" type="line"/>
      <point x="347" y="104" type="line" smooth="yes"/>
      <point x="532" y="104"/>
      <point x="646" y="202"/>
      <point x="646" y="363" type="curve" smooth="yes"/>
      <point x="646" y="379" type="line" smooth="yes"/>
      <point x="646" y="540"/>
      <point x="532" y="638"/>
      <point x="347" y="638" type="curve" smooth="yes"/>
      <point x="240" y="638" type="line"/>
      <point x="240" y="478" type="line"/>
      <point x="352" y="478" type="line" smooth="yes"/>
      <point x="417" y="478"/>
      <point x="458" y="438"/>
      <point x="458" y="371" type="curve" smooth="yes"/>
      <point x="458" y="304"/>
      <point x="417" y="265"/>
      <point x="352" y="265" type="curve" smooth="yes"/>
      <point x="240" y="265" type="line"/>
    </contour>
    <contour>
      <point x="74" y="0" type="line"/>
      <point x="260" y="0" type="line"/>
      <point x="260" y="730" type="line"/>
      <point x="74" y="730" type="line"/>
    </contour>
  </outline>
</glyph>
<glyph name="germandbls" format="2">
  <advance width="693"/>
  <unicode hex="00DF"/>
  <outline>
    <contour>
      <point x="406" y="-14" type="curve" smooth="yes"/>
      <point x="543" y="-14"/>
      <point x="666" y="52"/>
      <point x="666" y="206" type="curve" smooth="yes"/>
      <point x="666" y="336"/>
      <point x="576" y="414"/>
      <point x="411" y="414" type="curve"/>
      <point x="411" y="370" type="line"/>
      <point x="551" y="370"/>
      <point x="610" y="441"/>
      <point x="610" y="535" type="curve" smooth="yes"/>
      <point x="610" y="660"/>
      <point x="507" y="748"/>
      <point x="350" y="748" type="curve" smooth="yes"/>
      <point x="346" y="748" type="line" smooth="yes"/>
      <point x="180" y="748"/>
      <point x="76" y="658"/>
      <point x="76" y="497" type="curve" smooth="yes"/>
      <point x="76" y="0" type="line"/>
      <point x="258" y="0" type="line"/>
      <point x="258" y="503" type="line" smooth="yes"/>
      <point x="258" y="570"/>
      <point x="300" y="602"/>
      <point x="348" y="602" type="curve" smooth="yes"/>
      <point x="395" y="602"/>
      <point x="428" y="571"/>
      <point x="428" y="523" type="curve" smooth="yes"/>
      <point x="428" y="482"/>
      <point x="403" y="452"/>
      <point x="359" y="452" type="curve" smooth="yes"/>
      <point x="326" y="452" type="line"/>
      <point x="326" y="320" type="line"/>
      <point x="370" y="320" type="line" smooth="yes"/>
      <point x="452" y="320"/>
      <point x="484" y="274"/>
      <point x="484" y="222" type="curve" smooth="yes"/>
      <point x="484" y="161"/>
      <point x="443" y="132"/>
      <point x="386" y="132" type="curve" smooth="yes"/>
      <point x="360" y="132"/>
      <point x="332" y="138"/>
      <point x="308" y="145" type="curve"/>
      <point x="308" y="-1" type="line"/>
      <point x="332" y="-9"/>
      <point x="368" y="-14"/>
    </contour>
    <contour>
      <point x="16" y="392" type="line"/>
      <point x="106" y="392" type="line"/>
      <point x="106" y="524" type="line"/>
      <point x="16" y="524" type="line"/>
    </contour>
  </outline>
</glyph>
<glyph name="Lslash" format="2">
  <advance width="562"/>
  <unicode hex="0141"/>
  <guideline x="87" y="257" angle="210.0897"/>
  <anchor x="305" y="0" name="bottom"/>
  <anchor x="167" y="365" name="center"/>
  <anchor x="167" y="730" name="top"/>
  <anchor x="278" y="541" name="topright"/>
  <outline>
    <contour>
      <point x="167" y="277" type="line"/>
      <point x="397" y="410" type="line"/>
      <point x="397" y="556" type="line"/>
      <point x="167" y="423" type="line"/>
    </contour>
    <contour>
      <point x="18" y="195" type="line"/>
      <point x="137" y="264" type="line"/>
      <point x="137" y="410" type="line"/>
      <point x="18" y="341" type="line"/>
    </contour>
    <component base="L"/>
  </outline>
</glyph>
<glyph name="oe" format="2">
  <advance width="1060"/>
  <unicode hex="0153"/>
  <outline>
    <contour>
      <point x="335" y="-18" type="curve" smooth="yes"/>
      <point x="530" y="-18"/>
      <point x="610" y="111"/>
      <point x="614" y="265" type="curve"/>
      <point x="500" y="265" type="line"/>
      <point x="500" y="124"/>
      <point x="577" y="-20"/>
      <point x="763" y="-20" type="curve" smooth="yes"/>
      <point x="904" y="-20"/>
      <point x="996" y="61"/>
      <point x="1020" y="174" type="curve"/>
      <point x="854" y="174" type="line"/>
      <point x="841" y="144"/>
      <point x="807" y="126"/>
      <point x="757" y="126" type="curve" smooth="yes"/>
      <point x="671" y="126"/>
      <point x="634" y="184"/>
      <point x="634" y="275" type="curve" smooth="yes"/>
      <point x="634" y="375"/>
      <point x="678" y="426"/>
      <point x="751" y="426" type="curve" smooth="yes"/>
      <point x="824" y="426"/>
      <point x="862" y="375"/>
      <point x="862" y="282" type="curve"/>
      <point x="925" y="322" type="line"/>
      <point x="626" y="322" type="line"/>
      <point x="626" y="228" type="line"/>
      <point x="1030" y="228" type="line"/>
      <point x="1030" y="284" type="line" smooth="yes"/>
      <point x="1030" y="436"/>
      <point x="934" y="572"/>
      <point x="757" y="572" type="curve" smooth="yes"/>
      <point x="578" y="572"/>
      <point x="500" y="434"/>
      <point x="500" y="287" type="curve"/>
      <point x="614" y="287" type="line"/>
      <point x="614" y="446"/>
      <point x="523" y="572"/>
      <point x="335" y="572" type="curve" smooth="yes"/>
      <point x="147" y="572"/>
      <point x="34" y="446"/>
      <point x="34" y="287" type="curve" smooth="yes"/>
      <point x="34" y="263" type="line" smooth="yes"/>
      <point x="34" y="111"/>
      <point x="140" y="-18"/>
    </contour>
    <contour>
      <point x="341" y="134" type="curve" smooth="yes"/>
      <point x="258" y="134"/>
      <point x="216" y="194"/>
      <point x="216" y="275" type="curve" smooth="yes"/>
      <point x="216" y="358"/>
      <point x="261" y="420"/>
      <point x="341" y="420" type="curve" smooth="yes"/>
      <point x="421" y="420"/>
      <point x="466" y="358"/>
      <point x="466" y="275" type="curve" smooth="yes"/>
      <point x="466" y="194"/>
      <point x="424" y="134"/>
    </contour>
  </outline>
</glyph>
<glyph name="acutecomb" format="2">
  <unicode hex="0301"/>
  <anchor x="89" y="552" name="_top"/>
  <anchor x="178" y="824" name="top"/>
  <outline>
    <contour>
      <point x="0" y="612" type="line"/>
      <point x="160" y="612" type="line"/>
      <point x="276" y="824" type="line"/>
      <point x="90" y="824" type="line"/>
    </contour>
  </outline>
</glyph>
<glyph name="caroncomb" format="2">
  <unicode hex="030C"/>
  <anchor x="222" y="552" name="_top"/>
  <anchor x="217" y="824" name="top"/>
  <outline>
    <contour>
      <point x="101" y="612" type="line"/>
      <point x="329" y="612" type="line"/>
      <point x="424" y="824" type="line"/>
      <point x="274" y="824" type="line"/>
      <point x="224" y="696" type="line"/>
      <point x="210" y="696" type="line"/>
      <point x="154" y="824" type="line"/>
      <point x="0" y="824" type="line"/>
    </contour>
  </outline>
</glyph>
<glyph name="Germandbls" format="2">
  <advance width="1294"/>
  <unicode hex="1E9E"/>
  <outline>
    <contour>
      <point x="329" y="-21" type="curve" smooth="yes"/>
      <point x="515" y="-21"/>
      <point x="628" y="72"/>
      <point x="628" y="215" type="curve" smooth="yes"/>
      <point x="628" y="354"/>
      <point x="514" y="434"/>
      <point x="352" y="448" type="curve" smooth="yes"/>
      <point x="306" y="452" type="line" smooth="yes"/>
      <point x="246" y="457"/>
      <point x="225" y="486"/>
      <point x="225" y="523" type="curve" smooth="yes"/>
      <point x="225" y="565"/>
      <point x="255" y="597"/>
      <point x="312" y="597" type="curve" smooth="yes"/>
      <point x="373" y="597"/>
      <point x="409" y="560"/>
      <point x="409" y="511" type="curve"/>
      <point x="589" y="511" type="line"/>
      <point x="589" y="655"/>
      <point x="488" y="751"/>
      <point x="312" y="751" type="curve" smooth="yes"/>
      <point x="150" y="751"/>
      <point x="45" y="666"/>
      <point x="45" y="523" type="curve" smooth="yes"/>
      <point x="45" y="382"/>
      <point x="148" y="303"/>
      <point x="288" y="291" type="curve" smooth="yes"/>
      <point x="334" y="287" type="line" smooth="yes"/>
      <point x="419" y="280"/>
      <point x="448" y="255"/>
      <point x="448" y="215" type="curve" smooth="yes"/>
      <point x="448" y="166"/>
      <point x="404" y="133"/>
      <point x="329" y="133" type="curve" smooth="yes"/>
      <point x="243" y="133"/>
      <point x="202" y="174"/>
      <point x="202" y="227" type="curve"/>
      <point x="22" y="227" type="line"/>
      <point x="22" y="83"/>
      <point x="128" y="-21"/>
    </contour>
    <contour>
      <point x="973" y="-21" type="curve" smooth="yes"/>
      <point x="1159" y="-21"/>
      <point x="1272" y="72"/>
      <point x="1272" y="215" type="curve" smooth="yes"/>
      <point x="1272" y="355"/>
      <point x="1158" y="434"/>
      <point x="996" y="448" type="curve" smooth="yes"/>
      <point x="950" y="452" type="line" smooth="yes"/>
      <point x="890" y="457"/>
      <point x="869" y="486"/>
      <point x="869" y="523" type="curve" smooth="yes"/>
      <point x="869" y="565"/>
      <point x="899" y="597"/>
      <point x="956" y="597" type="curve" smooth="yes"/>
      <point x="1017" y="597"/>
      <point x="1053" y="560"/>
      <point x="1053" y="511" type="curve"/>
      <point x="1233" y="511" type="line"/>
      <point x="1233" y="655"/>
      <point x="1132" y="751"/>
      <point x="956" y="751" type="curve" smooth="yes"/>
      <point x="794" y="751"/>
      <point x="689" y="666"/>
      <point x="689" y="523" type="curve" smooth="yes"/>
      <point x="689" y="382"/>
      <point x="792" y="303"/>
      <point x="932" y="291" type="curve" smooth="yes"/>
      <point x="978" y="287" type="line" smooth="yes"/>
      <point x="1061" y="280"/>
      <point x="1092" y="256"/>
      <point x="1092" y="215" type="curve" smooth="yes"/>
      <point x="1092" y="166"/>
      <point x="1048" y="133"/>
      <point x="973" y="133" type="curve" smooth="yes"/>
      <point x="887" y="133"/>
      <point x="846" y="174"/>
      <point x="846" y="227" type="curve"/>
      <point x="666" y="227" type="line"/>
      <point x="666" y="83"/>
      <point x="772" y="-21"/>
    </contour>
  </outline>
</glyph>
<glyph name="minute" format="2">
  <advance width="270"/>
  <unicode hex="2032"/>
  <outline>
    <contour>
      <point x="24" y="408" type="line"/>
      <point x="190" y="408" type="line"/>
      <point x="246" y="730" type="line"/>
      <point x="80" y="730" type="line"/>
    </contour>
  </outline>
</glyph>
<glyph name="euro" format="2">
  <advance width="716"/>
  <unicode hex="20AC"/>
  <outline>
    <contour>
      <point x="398" y="-18" type="curve" smooth="yes"/>
      <point x="591" y="-18"/>
      <point x="684" y="88"/>
      <point x="690" y="237" type="curve"/>
      <point x="530" y="237" type="line"/>
      <point x="525" y="170"/>
      <point x="484" y="128"/>
      <point x="398" y="128" type="curve" smooth="yes"/>
      <point x="289" y="128"/>
      <point x="243" y="193"/>
      <point x="243" y="365" type="curve" smooth="yes"/>
      <point x="243" y="537"/>
      <point x="285" y="602"/>
      <point x="393" y="602" type="curve" smooth="yes"/>
      <point x="478" y="602"/>
      <point x="519" y="560"/>
      <point x="524" y="493" type="curve"/>
      <point x="684" y="493" type="line"/>
      <point x="678" y="642"/>
      <point x="585" y="748"/>
      <point x="393" y="748" type="curve" smooth="yes"/>
      <point x="189" y="748"/>
      <point x="81" y="622"/>
      <point x="81" y="372" type="curve" smooth="yes"/>
      <point x="81" y="358" type="line" smooth="yes"/>
      <point x="81" y="108"/>
      <point x="193" y="-18"/>
    </contour>
    <contour>
      <point x="10" y="239" type="line"/>
      <point x="441" y="239" type="line"/>
      <point x="441" y="325" type="line"/>
      <point x="10" y="325" type="line"/>
    </contour>
    <contour>
      <point x="28" y="391" type="line"/>
      <point x="459" y="391" type="line"/>
      <point x="459" y="477" type="line"/>
      <point x="28" y="477" type="line"/>
    </contour>
  </outline>
</glyph>
<glyph name="sora" format="2">
  <advance width="842"/>
  <unicode hex="E000"/>
  <outline>
    <contour>
      <point x="189" y="-8" type="line"/>
      <point x="403" y="284" type="line"/>
      <point x="385" y="280" type="line"/>
      <point x="454" y="280" type="line"/>
      <point x="436" y="284" type="line"/>
      <point x="651" y="-8" type="line"/>
      <point x="778" y="83" type="line"/>
      <point x="508" y="442" type="line"/>
      <point x="334" y="442" type="line"/>
      <point x="64" y="83" type="line"/>
    </contour>
    <contour>
      <point x="80" y="442" type="line"/>
      <point x="762" y="442" type="line"/>
      <point x="762" y="546" type="line"/>
      <point x="80" y="546" type="line"/>
    </contour>
    <contour>
      <point x="335" y="478" type="line"/>
      <point x="507" y="478" type="line"/>
      <point x="507" y="674" type="line"/>
      <point x="335" y="674" type="line"/>
    </contour>
    <contour>
      <point x="80" y="626" type="line"/>
      <point x="762" y="626" type="line"/>
      <point x="762" y="730" type="line"/>
      <point x="80" y="730" type="line"/>
    </contour>
  </outline>
</glyph>
<glyph name="fi" format="2">
  <advance width="700"/>
  <unicode hex="FB01"/>
  <outline>
    <contour>
      <point x="76" y="0" type="line"/>
      <point x="244" y="0" type="line"/>
      <point x="244" y="564" type="line" smooth="yes"/>
      <point x="244" y="596"/>
      <point x="262" y="614"/>
      <point x="294" y="614" type="curve" smooth="yes"/>
      <point x="350" y="614" type="line"/>
      <point x="350" y="748" type="line"/>
      <point x="298" y="748" type="line" smooth="yes"/>
      <point x="151" y="748"/>
      <point x="76" y="685"/>
      <point x="76" y="556" type="curve" smooth="yes"/>
    </contour>
    <contour>
      <point x="16" y="414" type="line"/>
      <point x="350" y="414" type="line"/>
      <point x="350" y="546" type="line"/>
      <point x="16" y="546" type="line"/>
    </contour>
    <contour>
      <point x="450" y="0" type="line"/>
      <point x="632" y="0" type="line"/>
      <point x="632" y="552" type="line"/>
      <point x="450" y="552" type="line"/>
    </contour>
    <contour>
      <point x="390" y="420" type="line"/>
      <point x="632" y="420" type="line"/>
      <point x="632" y="552" type="line"/>
      <point x="390" y="552" type="line"/>
    </contour>
    <contour>
      <point x="524" y="596" type="curve" smooth="yes"/>
      <point x="590" y="596"/>
      <point x="620" y="634"/>
      <point x="620" y="687" type="curve" smooth="yes"/>
      <point x="620" y="740"/>
      <point x="590" y="778"/>
      <point x="524" y="778" type="curve" smooth="yes"/>
      <point x="458" y="778"/>
      <point x="428" y="740"/>
      <point x="428" y="687" type="curve" smooth="yes"/>
      <point x="428" y="634"/>
      <point x="458" y="596"/>
    </contour>
  </outline>
</glyph>
<glyph name="fl" format="2">
  <advance width="692"/>
  <unicode hex="FB02"/>
  <outline>
    <contour>
      <point x="76" y="0" type="line"/>
      <point x="244" y="0" type="line"/>
      <point x="244" y="548" type="line" smooth="yes"/>
      <point x="244" y="580"/>
      <point x="262" y="598"/>
      <point x="294" y="598" type="curve" smooth="yes"/>
      <point x="347" y="598" type="line"/>
      <point x="347" y="730" type="line"/>
      <point x="298" y="730" type="line" smooth="yes"/>
      <point x="151" y="730"/>
      <point x="76" y="667"/>
      <point x="76" y="538" type="curve" smooth="yes"/>
    </contour>
    <contour>
      <point x="16" y="402" type="line"/>
      <point x="351" y="402" type="line"/>
      <point x="351" y="534" type="line"/>
      <point x="16" y="534" type="line"/>
    </contour>
    <contour>
      <point x="442" y="0" type="line"/>
      <point x="624" y="0" type="line"/>
      <point x="624" y="730" type="line"/>
      <point x="442" y="730" type="line"/>
    </contour>
    <contour>
      <point x="387" y="598" type="line"/>
      <point x="624" y="598" type="line"/>
      <point x="624" y="730" type="line"/>
      <point x="387" y="730" type="line"/>
    </contour>
  </outline>
</glyph>
<glyph name="Q.salt" format="2">
  <advance width="864"/>
  <guideline x="431" y="360" angle="90"/>
  <anchor x="432" y="0" name="bottom"/>
  <anchor x="432" y="352" name="center"/>
  <anchor x="562" y="10" name="ogonek"/>
  <anchor x="432" y="730" name="top"/>
  <outline>
    <contour>
      <point x="612" y="-82" type="line"/>
      <point x="788" y="-82" type="line"/>
      <point x="510" y="302" type="line"/>
      <point x="334" y="302" type="line"/>
    </contour>
    <component base="O"/>
  </outline>
</glyph>
<glyph name="cent.tnum" format="2">
  <advance width="676"/>
  <outline>
    <contour>
      <point x="349" y="89" type="curve" smooth="yes"/>
      <point x="507" y="89"/>
      <point x="608" y="180"/>
      <point x="616" y="319" type="curve"/>
      <point x="444" y="319" type="line"/>
      <point x="437" y="270"/>
      <point x="403" y="239"/>
      <point x="348" y="239" type="curve" smooth="yes"/>
      <point x="279" y="239"/>
      <point x="244" y="286"/>
      <point x="244" y="362" type="curve" smooth="yes"/>
      <point x="244" y="442"/>
      <point x="285" y="489"/>
      <point x="348" y="489" type="curve" smooth="yes"/>
      <point x="401" y="489"/>
      <point x="435" y="456"/>
      <point x="440" y="414" type="curve"/>
      <point x="612" y="414" type="line"/>
      <point x="604" y="551"/>
      <point x="503" y="639"/>
      <point x="349" y="639" type="curve" smooth="yes"/>
      <point x="174" y="639"/>
      <point x="68" y="525"/>
      <point x="68" y="372" type="curve" smooth="yes"/>
      <point x="68" y="352" type="line" smooth="yes"/>
      <point x="68" y="207"/>
      <point x="171" y="89"/>
    </contour>
    <contour>
      <point x="279" y="0" type="line"/>
      <point x="425" y="0" type="line"/>
      <point x="425" y="146" type="line"/>
      <point x="279" y="146" type="line"/>
    </contour>
    <contour>
      <point x="279" y="574" type="line"/>
      <point x="425" y="574" type="line"/>
      <point x="425" y="720" type="line"/>
      <point x="279" y="720" type="line"/>
    </contour>
  </outline>
</glyph>
<glyph name="dollar.tnum" format="2">
  <advance width="676"/>
  <outline>
    <contour>
      <point x="355" y="-7" type="curve" smooth="yes"/>
      <point x="542" y="-7"/>
      <point x="641" y="71"/>
      <point x="641" y="212" type="curve" smooth="yes"/>
      <point x="641" y="349"/>
      <point x="539" y="423"/>
      <point x="377" y="437" type="curve" smooth="yes"/>
      <point x="331" y="441" type="line" smooth="yes"/>
      <point x="271" y="446"/>
      <point x="250" y="481"/>
      <point x="250" y="516" type="curve" smooth="yes"/>
      <point x="250" y="559"/>
      <point x="281" y="585"/>
      <point x="338" y="585" type="curve" smooth="yes"/>
      <point x="400" y="585"/>
      <point x="436" y="550"/>
      <point x="436" y="500" type="curve"/>
      <point x="602" y="500" type="line"/>
      <point x="602" y="644"/>
      <point x="514" y="727"/>
      <point x="338" y="727" type="curve" smooth="yes"/>
      <point x="175" y="727"/>
      <point x="84" y="657"/>
      <point x="84" y="516" type="curve" smooth="yes"/>
      <point x="84" y="380"/>
      <point x="171" y="305"/>
      <point x="315" y="292" type="curve" smooth="yes"/>
      <point x="361" y="288" type="line" smooth="yes"/>
      <point x="444" y="281"/>
      <point x="475" y="252"/>
      <point x="475" y="212" type="curve" smooth="yes"/>
      <point x="475" y="164"/>
      <point x="430" y="135"/>
      <point x="355" y="135" type="curve" smooth="yes"/>
      <point x="268" y="135"/>
      <point x="227" y="173"/>
      <point x="227" y="228" type="curve"/>
      <point x="61" y="228" type="line"/>
      <point x="61" y="84"/>
      <point x="154" y="-7"/>
    </contour>
    <contour>
      <point x="275" y="-129" type="line"/>
      <point x="421" y="-129" type="line"/>
      <point x="421" y="17" type="line"/>
      <point x="275" y="17" type="line"/>
    </contour>
    <contour>
      <point x="271" y="681" type="line"/>
      <point x="417" y="681" type="line"/>
      <point x="417" y="827" type="line"/>
      <point x="271" y="827" type="line"/>
    </contour>
  </outline>
</glyph>
<glyph name="eight.tnum" format="2">
  <advance width="676"/>
  <outline>
    <contour>
      <point x="338" y="-22" type="curve" smooth="yes"/>
      <point x="521" y="-22"/>
      <point x="638" y="55"/>
      <point x="638" y="202" type="curve" smooth="yes"/>
      <point x="638" y="295"/>
      <point x="592" y="357"/>
      <point x="518" y="383" type="curve"/>
      <point x="518" y="397" type="line"/>
      <point x="576" y="420"/>
      <point x="617" y="468"/>
      <point x="617" y="550" type="curve" smooth="yes"/>
      <point x="617" y="687"/>
      <point x="501" y="752"/>
      <point x="338" y="752" type="curve" smooth="yes"/>
      <point x="175" y="752"/>
      <point x="59" y="687"/>
      <point x="59" y="550" type="curve" smooth="yes"/>
      <point x="59" y="467"/>
      <point x="100" y="420"/>
      <point x="158" y="397" type="curve"/>
      <point x="158" y="383" type="line"/>
      <point x="84" y="357"/>
      <point x="38" y="294"/>
      <point x="38" y="202" type="curve" smooth="yes"/>
      <point x="38" y="55"/>
      <point x="155" y="-22"/>
    </contour>
    <contour>
      <point x="338" y="130" type="curve" smooth="yes"/>
      <point x="268" y="130"/>
      <point x="218" y="160"/>
      <point x="218" y="226" type="curve" smooth="yes"/>
      <point x="218" y="291"/>
      <point x="267" y="321"/>
      <point x="338" y="321" type="curve" smooth="yes"/>
      <point x="409" y="321"/>
      <point x="458" y="291"/>
      <point x="458" y="226" type="curve" smooth="yes"/>
      <point x="458" y="160"/>
      <point x="408" y="130"/>
    </contour>
    <contour>
      <point x="338" y="457" type="curve" smooth="yes"/>
      <point x="276" y="457"/>
      <point x="239" y="482"/>
      <point x="239" y="529" type="curve" smooth="yes"/>
      <point x="239" y="575"/>
      <point x="275" y="600"/>
      <point x="338" y="600" type="curve" smooth="yes"/>
      <point x="401" y="600"/>
      <point x="437" y="575"/>
      <point x="437" y="529" type="curve" smooth="yes"/>
      <point x="437" y="482"/>
      <point x="400" y="457"/>
    </contour>
  </outline>
</glyph>
<glyph name="f_f.salt" format="2">
  <advance width="780"/>
  <outline>
    <contour>
      <point x="76" y="0" type="line"/>
      <point x="244" y="0" type="line"/>
      <point x="244" y="590" type="line" smooth="yes"/>
      <point x="244" y="606"/>
      <point x="250" y="619"/>
      <point x="267" y="619" type="curve" smooth="yes"/>
      <point x="284" y="619"/>
      <point x="290" y="606"/>
      <point x="290" y="590" type="curve"/>
      <point x="424" y="590" type="line"/>
      <point x="424" y="687"/>
      <point x="355" y="746"/>
      <point x="251" y="746" type="curve" smooth="yes"/>
      <point x="141" y="746"/>
      <point x="76" y="682"/>
      <point x="76" y="580" type="curve" smooth="yes"/>
    </contour>
    <contour>
      <point x="454" y="0" type="line"/>
      <point x="622" y="0" type="line"/>
      <point x="622" y="596" type="line" smooth="yes"/>
      <point x="622" y="613"/>
      <point x="629" y="625"/>
      <point x="647" y="625" type="curve" smooth="yes"/>
      <point x="665" y="625"/>
      <point x="672" y="613"/>
      <point x="672" y="596" type="curve"/>
      <point x="816" y="596" type="line"/>
      <point x="816" y="695"/>
      <point x="743" y="752"/>
      <point x="636" y="752" type="curve" smooth="yes"/>
      <point x="523" y="752"/>
      <point x="454" y="690"/>
      <point x="454" y="586" type="curve" smooth="yes"/>
    </contour>
    <contour>
      <point x="16" y="408" type="line"/>
      <point x="762" y="408" type="line"/>
      <point x="762" y="540" type="line"/>
      <point x="16" y="540" type="line"/>
    </contour>
  </outline>
</glyph>
<glyph name="l.salt" format="2">
  <advance width="336"/>
  <anchor x="179" y="0" name="bottom"/>
  <anchor x="183" y="480" name="center"/>
  <anchor x="143" y="730" name="top"/>
  <anchor x="218" y="534" name="topright"/>
  <outline>
    <contour>
      <point x="248" y="-6" type="curve" smooth="yes"/>
      <point x="314" y="-6" type="line"/>
      <point x="314" y="150" type="line"/>
      <point x="267" y="150" type="line" smooth="yes"/>
      <point x="245" y="150"/>
      <point x="234" y="161"/>
      <point x="234" y="183" type="curve" smooth="yes"/>
      <point x="234" y="730" type="line"/>
      <point x="52" y="730" type="line"/>
      <point x="52" y="183" type="line" smooth="yes"/>
      <point x="52" y="51"/>
      <point x="96" y="-6"/>
    </contour>
  </outline>
</glyph>
<glyph name="lslash.salt" format="2">
  <advance width="336"/>
  <anchor x="179" y="0" name="bottom"/>
  <anchor x="183" y="480" name="center"/>
  <anchor x="143" y="730" name="top"/>
  <anchor x="218" y="534" name="topright"/>
  <outline>
    <contour>
      <point x="5" y="181" type="line"/>
      <point x="133" y="251" type="line"/>
      <point x="133" y="383" type="line"/>
      <point x="5" y="313" type="line"/>
    </contour>
    <contour>
      <point x="186" y="279" type="line"/>
      <point x="308" y="345" type="line"/>
      <point x="308" y="477" type="line"/>
      <point x="186" y="411" type="line"/>
    </contour>
    <component base="l.salt"/>
  </outline>
</glyph>
<glyph name="ringcomb.case" format="2">
  <anchor x="134" y="730" name="_top"/>
  <anchor x="134" y="966" name="top"/>
  <outline>
    <contour>
      <point x="134" y="760" type="curve" smooth="yes"/>
      <point x="214" y="760"/>
      <point x="268" y="805"/>
      <point x="268" y="874" type="curve" smooth="yes"/>
      <point x="268" y="943"/>
      <point x="214" y="988"/>
      <point x="134" y="988" type="curve" smooth="yes"/>
      <point x="54" y="988"/>
      <point x="0" y="943"/>
      <point x="0" y="874" type="curve" smooth="yes"/>
      <point x="0" y="805"/>
      <point x="54" y="760"/>
    </contour>
    <contour>
      <point x="134" y="839" type="curve" smooth="yes"/>
      <point x="110" y="839"/>
      <point x="96" y="854"/>
      <point x="96" y="874" type="curve" smooth="yes"/>
      <point x="96" y="894"/>
      <point x="110" y="909"/>
      <point x="134" y="909" type="curve" smooth="yes"/>
      <point x="158" y="909"/>
      <point x="172" y="894"/>
      <point x="172" y="874" type="curve" smooth="yes"/>
      <point x="172" y="854"/>
      <point x="158" y="839"/>
    </contour>
  </outline>
</glyph>
